<?xml version="1.0" encoding="UTF-8"?>
<svg id="Layer_1" xmlns="http://www.w3.org/2000/svg" version="1.1" viewBox="0 0 400 80">
  <!-- Generator: Adobe Illustrator 30.2.1, SVG Export Plug-In . SVG Version: 2.1.1 Build 1)  -->
  <defs>
    <style>
      .st0, .st1, .st2 {
        fill: #534ab7;
      }

      .st3 {
        fill: #aaaabc;
        font-family: Helvetica, Helvetica;
        font-size: 9px;
        letter-spacing: .28em;
      }

      .st3, .st4, .st1, .st2 {
        isolation: isolate;
      }

      .st5 {
        fill: none;
        stroke: #534ab7;
        stroke-width: 1.5px;
      }

      .st4 {
        fill: #0d0d1a;
        font-family: Helvetica-Bold, Helvetica;
        font-weight: 700;
        letter-spacing: -.02em;
      }

      .st4, .st1 {
        font-size: 26px;
      }

      .st1 {
        font-family: Helvetica-Light, Helvetica;
        font-weight: 300;
        letter-spacing: .04em;
      }

      .st2 {
        opacity: .12;
      }
    </style>
  </defs>
  <g>
    <polygon class="st5" points="35.79 12 59.79 26 59.79 54 35.79 68 11.79 54 11.79 26 35.79 12"/>
    <polygon class="st2" points="35.79 24 49.79 32 49.79 48 35.79 56 21.79 48 21.79 32 35.79 24"/>
    <line class="st5" x1="35.79" y1="12" x2="35.79" y2="26"/>
    <line class="st5" x1="59.79" y1="26" x2="47.79" y2="33"/>
    <line class="st5" x1="59.79" y1="54" x2="47.79" y2="47"/>
    <line class="st5" x1="35.79" y1="68" x2="35.79" y2="54"/>
    <line class="st5" x1="11.79" y1="54" x2="23.79" y2="47"/>
    <line class="st5" x1="11.79" y1="26" x2="23.79" y2="33"/>
    <circle class="st0" cx="35.79" cy="40" r="4"/>
  </g>
  <text class="st4" transform="translate(68.88 32.77)"><tspan x="0" y="0">Parvis</tspan></text>
  <text class="st1" transform="translate(158.74 33.23)"><tspan x="0" y="0">AI</tspan></text>
  <text class="st3" transform="translate(68 50.5)"><tspan x="0" y="0">INTELLIGENT SYSTEMS</tspan></text>
</svg>